<?xml version="1.0" standalone="no"?>
<!DOCTYPE svg PUBLIC "-//W3C//DTD SVG 20010904//EN"
 "http://www.w3.org/TR/2001/REC-SVG-20010904/DTD/svg10.dtd">
<svg version="1.0" xmlns="http://www.w3.org/2000/svg"
 width="400.000000pt" height="400.000000pt" viewBox="0 0 400.000000 400.000000"
 preserveAspectRatio="xMidYMid meet">
<metadata>
Created by potrace 1.11, written by Peter Selinger 2001-2013
</metadata>
<g transform="translate(0.000000,400.000000) scale(0.100000,-0.100000)"
fill="#000000" stroke="none">
<path d="M1923 3985 c-414 -63 -760 -240 -1058 -540 -60 -61 -144 -139 -185
-172 -106 -85 -263 -252 -342 -363 -140 -197 -252 -456 -304 -705 -32 -149
-43 -428 -25 -582 37 -296 157 -610 329 -853 86 -123 309 -346 432 -432 199
-141 458 -252 705 -304 164 -34 421 -43 585 -20 153 21 314 65 447 120 380
158 437 186 584 285 201 135 368 303 502 506 77 116 257 488 308 635 65 187
90 326 96 537 8 266 -16 432 -99 671 -65 191 -164 372 -293 537 -72 92 -232
250 -322 318 -222 169 -509 296 -784 348 -148 27 -441 35 -576 14z m402 -45
c493 -55 940 -307 1236 -695 169 -222 288 -502 341 -805 15 -89 16 -433 1
-500 l-11 -45 -1 53 c-8 396 -165 809 -426 1122 -232 278 -570 492 -918 581
-251 64 -448 73 -782 35 -390 -45 -578 -99 -835 -241 l-65 -35 75 70 c238 225
579 390 916 444 55 9 115 17 134 19 78 8 250 6 335 -3z m-1285 -563 c0 -2 -35
-31 -79 -65 -206 -163 -400 -414 -512 -662 -21 -47 -39 -78 -39 -69 0 38 77
254 130 364 55 116 62 124 141 192 104 89 182 145 279 200 75 43 80 46 80 40z
m-528 -458 c-70 -151 -99 -253 -183 -639 -31 -145 -42 -275 -36 -435 11 -277
69 -503 193 -748 60 -120 124 -218 123 -192 0 11 -17 112 -38 225 -21 113 -37
206 -36 208 1 2 21 -31 44 -72 23 -42 66 -112 97 -157 54 -79 56 -84 77 -210
18 -107 20 -134 9 -161 -12 -31 -11 -34 36 -81 355 -364 862 -566 1367 -543
77 3 151 8 165 12 18 4 21 3 10 -4 -23 -15 -193 -49 -302 -61 -403 -45 -826
61 -1173 294 -470 314 -756 824 -782 1395 -16 357 90 734 290 1034 59 87 168
226 175 221 1 -1 -15 -40 -36 -86z m1552 -166 c4 -27 25 -161 48 -299 l41
-250 54 29 c63 34 101 33 122 -4 20 -37 2 -77 -52 -112 -23 -15 -54 -38 -70
-50 l-28 -23 30 -180 c56 -344 65 -531 27 -573 -11 -12 -31 -21 -48 -21 -42 0
-49 29 -59 225 -5 94 -17 233 -27 309 l-17 139 -40 -54 c-32 -42 -47 -55 -72
-57 -39 -4 -78 39 -68 76 6 26 68 113 121 172 l33 36 -34 235 c-52 368 -52
362 -21 409 35 54 52 52 60 -7z m1356 -315 c27 -45 25 -84 -5 -113 -31 -32
-48 -31 -84 3 -40 37 -48 80 -21 115 32 41 84 38 110 -5z m-918 -72 c23 -27
23 -94 1 -118 -30 -33 -85 -22 -108 23 -29 54 -14 104 35 122 23 8 53 -3 72
-27z m-1984 -114 c15 -15 21 -16 42 -4 41 21 124 10 173 -24 134 -94 152 -279
48 -494 -32 -67 -100 -140 -129 -140 -12 0 -22 -6 -22 -12 1 -7 18 -107 39
-222 38 -208 38 -209 14 -182 -29 34 -127 200 -155 262 -21 49 -70 325 -109
623 l-23 173 23 19 c29 24 76 24 99 1z m2950 -72 c14 -15 26 -72 51 -242 70
-473 72 -495 42 -522 -29 -26 -93 -18 -108 14 -16 34 -47 232 -78 499 l-26
223 22 24 c28 29 71 31 97 4z m-208 -20 c25 -25 25 -15 -4 -135 -13 -55 -45
-206 -70 -335 -60 -308 -68 -334 -106 -350 -47 -19 -72 -2 -98 65 -12 31 -22
63 -22 71 0 35 -18 0 -24 -46 -11 -79 -63 -114 -108 -73 -21 19 -84 205 -127
378 -47 188 -47 190 -17 219 14 15 36 26 50 26 22 0 27 -8 44 -62 11 -35 25
-87 32 -115 6 -29 15 -51 19 -48 5 2 11 42 14 88 11 138 33 170 102 153 32 -8
40 -28 73 -184 14 -67 29 -119 32 -115 4 5 17 62 30 128 40 212 70 329 87 343
25 18 70 15 93 -8z m-706 -59 c12 -13 23 -62 37 -157 10 -77 23 -164 29 -194
5 -30 19 -124 29 -208 25 -192 17 -221 -55 -222 -17 0 -38 8 -47 18 -20 21
-48 185 -82 467 -31 263 -31 279 -3 299 30 22 71 20 92 -3z m-1274 -176 c59
-31 65 -88 19 -185 -24 -53 -52 -87 -149 -181 l-119 -115 8 -54 c14 -87 50
-100 141 -49 108 61 110 62 136 51 49 -23 36 -98 -25 -141 -91 -65 -207 -89
-270 -57 -41 22 -88 80 -103 127 -6 23 -22 53 -35 65 -30 30 -29 55 2 92 14
17 25 36 25 43 0 35 36 152 66 215 37 79 103 147 176 182 52 25 89 27 128 7z
m578 -49 c3 -36 -1 -42 -71 -110 -41 -39 -84 -89 -95 -112 -33 -65 -53 -160
-59 -278 -6 -97 -9 -113 -29 -133 -29 -29 -79 -31 -94 -4 -5 11 -24 80 -40
153 -17 73 -47 186 -67 251 l-36 118 20 27 c22 30 73 41 90 20 8 -11 42 -100
60 -158 2 -8 19 17 39 57 58 121 168 215 244 210 33 -2 35 -4 38 -41z"/>
<path d="M577 2112 c-10 -10 -17 -29 -17 -43 0 -42 43 -334 50 -342 11 -13 67
83 86 148 20 71 22 151 4 185 -34 67 -89 90 -123 52z"/>
<path d="M1132 1753 c-27 -39 -54 -94 -49 -99 7 -7 97 99 97 113 0 23 -28 14
-48 -14z"/>
</g>
</svg>
